<svg xmlns="http://www.w3.org/2000/svg" viewBox="0 0 64 64"><g id="_15-Detective" data-name="15-Detective"><path d="M43,53v1a3,3,0,0,1-6,0V53Z" style="fill:#636978"/><path d="M27,53v1a3,3,0,0,1-6,0V53Z" style="fill:#636978"/><rect x="21" y="49" width="6" height="4" style="fill:#7d3c37"/><rect x="37" y="49" width="6" height="4" style="fill:#7d3c37"/><path d="M55,63H47V48c0-5,5-8,5-8S55,49,55,63Z" style="fill:#7d3c37"/><path d="M17,48V63H9c0-14,3-23,3-23S17,43,17,48Z" style="fill:#7d3c37"/><path d="M29,32.48V36s-1.56,0-3.88.25A8.711,8.711,0,0,1,23,31H16s0-3.84,7.52-3.99A9,9,0,0,0,29,32.48Z" style="fill:#7d3c37"/><path d="M48,31H41a8.711,8.711,0,0,1-2.12,5.25C36.56,36,35,36,35,36V32.48a9.018,9.018,0,0,0,5.48-5.47C48,27.16,48,31,48,31Z" style="fill:#7d3c37"/><path d="M52,40s-5,3-5,8V63H32V42a25.966,25.966,0,0,0,6.88-5.75A8.711,8.711,0,0,0,41,31h7l-3,6A30.539,30.539,0,0,1,52,40ZM43,54V49H37v5a3,3,0,0,0,6,0Z" style="fill:#b24535"/><path d="M32,42V63H17V48c0-5-5-8-5-8a30.539,30.539,0,0,1,7-3l-3-6h7a8.711,8.711,0,0,0,2.12,5.25A25.966,25.966,0,0,0,32,42ZM27,54V49H21v5a3,3,0,0,0,6,0Z" style="fill:#e66441"/><polygon points="42.38 10 43 14 21 14 21.62 10 42.38 10" style="fill:#636978"/><polygon points="21.62 10 21 14 23 14 23.62 10 21.62 10" style="fill:#555a66"/><path d="M46,14a2.006,2.006,0,0,1,2,2,2.015,2.015,0,0,1-2,2H18a2.006,2.006,0,0,1-2-2,2.015,2.015,0,0,1,2-2H46Z" style="fill:#e66441"/><path d="M47.41,15.41A1.955,1.955,0,0,1,46,16H18a2,2,0,0,1-1.721-1A1.963,1.963,0,0,0,16,16a2.006,2.006,0,0,0,2,2H46a1.984,1.984,0,0,0,1.721-3A1.938,1.938,0,0,1,47.41,15.41Z" style="fill:#d3593d"/><path d="M41.39,3.54,42.38,10H21.62l.99-6.46A2.991,2.991,0,0,1,25.57,1H27a7.651,7.651,0,0,0,5,2,7.651,7.651,0,0,0,5-2h1.43A2.991,2.991,0,0,1,41.39,3.54Z" style="fill:#e66441"/><path d="M34,3a7.6,7.6,0,0,0,4.95-1.953A2.984,2.984,0,0,0,38.43,1H37a7.8,7.8,0,0,1-4,1.92A6.706,6.706,0,0,0,34,3Z" style="fill:#d3593d"/><path d="M27.05,1.047,27,1H25.57a2.991,2.991,0,0,0-2.96,2.54L21.62,10h2l.99-6.46A2.989,2.989,0,0,1,27.05,1.047Z" style="fill:#d3593d"/><path d="M23,18v6H21a2.006,2.006,0,0,1-2-2V19a1,1,0,0,1,1-1Z" style="fill:#faa68e"/><path d="M45,19v3a2.006,2.006,0,0,1-2,2H41V18h3A1,1,0,0,1,45,19Z" style="fill:#faa68e"/><path d="M38.88,36.25A25.966,25.966,0,0,1,32,42a25.966,25.966,0,0,1-6.88-5.75C27.44,36,29,36,29,36V32.48a8.914,8.914,0,0,0,6,0V36S36.56,36,38.88,36.25Z" style="fill:#faa68e"/><path d="M40.48,27.01A8.981,8.981,0,0,1,29,32.48a9,9,0,0,1-5.48-5.47A8.857,8.857,0,0,1,23,24V18H41v6A8.857,8.857,0,0,1,40.48,27.01Z" style="fill:#ffcdbe"/><rect x="23" y="18" width="18" height="2" style="fill:#ffbeaa"/><path d="M32,34A10.011,10.011,0,0,1,22,24V18h2v6a8,8,0,0,0,16,0V18h2v6A10.011,10.011,0,0,1,32,34Z"/><path d="M23,25H21a3,3,0,0,1-3-3V19a2,2,0,0,1,2-2v5a1,1,0,0,0,1,1h2Z"/><path d="M43,25H41V23h2a1,1,0,0,0,1-1V17a2,2,0,0,1,2,2v3A3,3,0,0,1,43,25Z"/><path d="M38.773,37.244C36.542,37,35.015,37,35,37a1,1,0,0,1-1-1V32h2v3.027c.7.03,1.734.094,2.987.229Z"/><path d="M25.227,37.244l-.214-1.988c1.253-.135,2.286-.2,2.987-.229V32h2v4a1,1,0,0,1-1,1C28.985,37,27.458,37,25.227,37.244Z"/><path d="M46,19H18a3,3,0,0,1,0-6H46a3,3,0,0,1,0,6ZM18,15a1,1,0,0,0,0,2H46a1,1,0,0,0,0-2Z"/><path d="M42.012,14.152,40.4,3.7A1.989,1.989,0,0,0,38.426,2H37.379A8.64,8.64,0,0,1,32,4a8.64,8.64,0,0,1-5.379-2H25.574A1.989,1.989,0,0,0,23.6,3.7L21.988,14.152l-1.976-.3L21.62,3.392A3.979,3.979,0,0,1,25.574,0H27a1,1,0,0,1,.707.293A6.715,6.715,0,0,0,32,2,6.715,6.715,0,0,0,36.3.29,1.01,1.01,0,0,1,37,0h1.426A3.979,3.979,0,0,1,42.38,3.392l1.608,10.456Z"/><path d="M32,43a1,1,0,0,1-.486-.126c-.368-.2-8.593-4.841-9.443-10.874H16a1,1,0,0,1-1-1c0-.2.1-5,9-5v2c-4.211,0-5.889,1.122-6.558,2H23a1,1,0,0,1,1,1c0,4.584,6.2,8.729,8,9.837,1.8-1.108,8-5.253,8-9.837a1,1,0,0,1,1-1h5.562C45.9,29.127,44.22,28,40,28V26c8.9,0,9,4.8,9,5a1,1,0,0,1-1,1H41.929c-.85,6.033-9.075,10.67-9.443,10.874A1,1,0,0,1,32,43Z"/><path d="M55,64H9a1,1,0,0,1-1-1c0-14,2.927-22.942,3.051-23.316a1,1,0,0,1,.451-.551,33.515,33.515,0,0,1,6.069-2.755l-2.466-4.931,1.79-.894,3,6a1,1,0,0,1-.645,1.415,29.118,29.118,0,0,0-6.412,2.707A81.087,81.087,0,0,0,10.005,62H54a80.915,80.915,0,0,0-2.832-21.325,29.143,29.143,0,0,0-6.413-2.707,1,1,0,0,1-.645-1.415l3-6,1.79.894-2.466,4.931A33.515,33.515,0,0,1,52.5,39.133a1,1,0,0,1,.451.551C53.073,40.058,56,49,56,63A1,1,0,0,1,55,64Z"/><rect x="31" y="42" width="2" height="21"/><path d="M18,63H16V48c0-4.358-4.471-7.116-4.516-7.144l1.031-1.713C12.738,39.277,18,42.5,18,48Z"/><path d="M48,63H46V48c0-5.5,5.262-8.723,5.485-8.857l1.03,1.714L52,40l.516.856C52.471,40.884,48,43.642,48,48Z"/><path d="M40,58a4,4,0,0,1-4-4V49a1,1,0,0,1,1-1h6a1,1,0,0,1,1,1v5A4,4,0,0,1,40,58Zm-2-8v4a2,2,0,0,0,4,0V50Z"/><rect x="37" y="52" width="6" height="2"/><path d="M24,58a4,4,0,0,1-4-4V49a1,1,0,0,1,1-1h6a1,1,0,0,1,1,1v5A4,4,0,0,1,24,58Zm-2-8v4a2,2,0,0,0,4,0V50Z"/><rect x="21" y="52" width="6" height="2"/><rect x="21" y="9" width="22" height="2"/></g></svg>