<?xml version="1.0" encoding="utf-8"?>
<!-- Generator: Adobe Illustrator 24.0.0, SVG Export Plug-In . SVG Version: 6.00 Build 0)  -->
<svg version="1.1" id="Layer_1" xmlns="http://www.w3.org/2000/svg" xmlns:xlink="http://www.w3.org/1999/xlink" x="0px" y="0px"
	 viewBox="0 0 256 256" enable-background="new 0 0 256 256" xml:space="preserve">
<g>
</g>
<g>
	<g>
		<path fill="#72C2E9" d="M94.882,218.762c-18.486,13.389-43.482,13.389-61.968,0c-19-13.806-30.443-29.948-27.037-54.253
			l6.852-48.785c0.301-2.138-1.233-11.045-1.617-22.46c-0.877-26.38,4.413-66.093,52.787-66.093
			c48.662,0,53.54,39.974,52.609,66.422c-0.384,11.004-1.781,19.665-1.439,22.131l6.852,48.785
			C125.313,188.73,113.968,204.894,94.882,218.762z"/>
		<path fill="#4BA5C8" d="M116.506,93.593c-4.522,7.907-12.251,15.567-20.98,22.31c-10.374,8.03-22.159,14.745-31.628,19.034
			c-8.099-3.659-20.487-10.442-31.628-19.007c-8.661-6.674-16.582-14.43-21.159-22.666c-0.877-26.38,4.413-66.093,52.787-66.093
			C112.56,27.171,117.438,67.144,116.506,93.593z"/>
		<path fill="#FEB69F" d="M95.526,115.902c-10.374,8.03-22.159,14.745-31.628,19.034c-8.099-3.659-20.487-10.442-31.628-19.007
			c3.549-4.303,7.989-7.88,13.046-10.442c-7.373-5.605-12.128-14.457-12.128-24.434c0-16.965,13.745-30.71,30.71-30.71
			s30.71,13.745,30.71,30.71c0,9.976-4.755,18.829-12.128,24.434C87.634,108.101,92.187,111.828,95.526,115.902z"/>
		<path fill="#C5E5FE" d="M63.898,216.23c-8.533,0-16.696-2.646-23.608-7.651c-1.118-0.81-1.368-2.373-0.559-3.491
			c0.81-1.119,2.372-1.368,3.491-0.559c6.054,4.384,13.203,6.701,20.676,6.701c17.346,0,44.334-17.778,40.618-44.277l-3.222-22.942
			c-0.192-1.367,0.761-2.631,2.128-2.823c1.368-0.19,2.631,0.761,2.823,2.128l3.222,22.942
			C113.657,196.143,84.279,216.23,63.898,216.23z M99.903,134.108l-0.556-3.961c-0.192-1.367,0.761-2.631,2.128-2.823
			c1.366-0.19,2.631,0.761,2.823,2.128l0.556,3.961c0.192,1.367-0.761,2.631-2.128,2.823
			C101.359,136.429,100.094,135.476,99.903,134.108z"/>
		<path d="M35.944,167.747c1.258,0.527,2.739-0.068,3.26-1.37c0.52-1.28-0.1-2.74-1.37-3.26c-1.26-0.51-2.75,0.13-3.26,1.37
			C34.043,165.802,34.692,167.242,35.944,167.747z"/>
		<path d="M57.376,73.983c0-1.381-1.119-2.5-2.5-2.5h-1.142c-1.381,0-2.5,1.119-2.5,2.5s1.119,2.5,2.5,2.5h1.142
			C56.257,76.483,57.376,75.364,57.376,73.983z"/>
		<path d="M74.061,71.483H72.92c-1.381,0-2.5,1.119-2.5,2.5s1.119,2.5,2.5,2.5h1.142c1.381,0,2.5-1.119,2.5-2.5
			S75.442,71.483,74.061,71.483z"/>
		<path d="M71.354,82.307c-1.35-0.24-2.66,0.69-2.89,2.03c-0.4,2.2-2.32,3.8-4.58,3.8c-2.24,0-4.16-1.6-4.55-3.8
			c-0.23-1.34-1.55-2.27-2.89-2.03c-1.36,0.24-2.27,1.54-2.03,2.9c0.81,4.59,4.79,7.92,9.48,7.93c4.69-0.01,8.68-3.34,9.49-7.94
			C73.623,83.847,72.714,82.547,71.354,82.307z"/>
		<path d="M31.448,220.787c19.409,14.057,45.491,14.058,64.904-0.002c19.749-14.349,31.59-31.307,28.043-56.623l-6.851-48.782
			c-1.017-7.338,17.942-90.709-53.646-90.709c-72.004,0-52.815,84.794-53.645,90.706l-6.852,48.786
			C-0.287,190.478,12.713,207.175,31.448,220.787z M63.898,29.671c38.277,0,51.297,25.431,50.123,63.209
			c-3.711,6.264-9.957,12.995-18.183,19.594c-2.609-2.805-5.683-5.341-9.015-7.406c4.33-4.13,7.46-9.34,9.06-15.07
			c0.37-1.33-0.4-2.71-1.73-3.08c-1.31-0.36-2.72,0.44-3.08,1.74c-1.64,5.86-5.23,11.13-10.11,14.84
			c-1.444,1.089-1.281,3.385,0.39,4.22c3.877,1.968,7.522,4.699,10.495,7.817c-8.456,6.283-18.447,12.251-27.95,16.653
			c-4.605-2.143-16.111-7.868-27.954-16.622c3.022-3.176,6.604-5.871,10.5-7.848c1.642-0.821,1.858-3.106,0.38-4.22
			c-7.07-5.39-11.13-13.57-11.14-22.44c0.03-15.53,12.69-28.19,28.22-28.21c11.496,0,21.898,6.926,26.22,17.78
			c0.49,1.25,1.98,1.9,3.24,1.4c1.29-0.51,1.91-1.96,1.4-3.25c-2.049-5.166-5.358-9.683-9.618-13.226
			c3.544-2.555,3.982-7.194,3.798-8.694c0-1.185-1.146-2.46-2.67-2.35c-1.37,0.1-2.41,1.3-2.31,2.67c0,2.636-1.013,4.606-3.607,5.04
			c-1.64-0.94-3.353-1.721-5.117-2.362c1.624-2.195,1.867-4.772,1.183-7.338c-0.34-1.31-1.74-2.13-3.05-1.79
			c-1.372,0.359-2.132,1.755-1.79,3.06c0.609,2.3-0.279,3.642-2.32,4.502c-1.763-0.286-3.556-0.442-5.371-0.442
			c-18.329,0-33.189,14.797-33.21,33.21c0,8.955,3.592,17.625,10.29,24.01c-3.345,2.061-6.368,4.561-9.02,7.435
			c-8.476-6.774-14.638-13.469-18.355-19.933C12.495,54.646,26.109,29.671,63.898,29.671z M8.352,164.857l6.852-48.784
			c0.275-1.951-0.439-6.459-1.059-13.945c10.757,13.366,29.079,25.433,44.505,33.08c-7.828,5.15-14.471,11.993-19.386,20.009
			c-0.72,1.17-0.35,2.72,0.83,3.44c1.169,0.718,2.707,0.366,3.44-0.83c5.264-8.594,12.696-15.743,21.5-20.662
			c16.471-7.478,36.94-20.709,48.456-34.863c-0.58,7.289-1.195,11.632-0.897,13.77l6.852,48.785
			c3.351,23.912-8.263,38.975-26.028,51.881c-17.656,12.788-41.38,12.787-59.033,0.002l-4.846-3.521
			c6.757-37.923,6.351-35.792,6.786-37.702c0.31-1.35-0.54-2.69-1.88-2.99c-1.34-0.31-2.69,0.55-2.99,1.88
			c-0.498,2.198-0.1,0.128-6.37,35.325C12.336,198.629,5.973,181.836,8.352,164.857z"/>
		<path d="M92.074,79.557c0.06,1.33,1.16,2.37,2.49,2.37c0.05,0,0.09,0,0.13,0c1.371-0.082,2.433-1.209,2.37-2.63
			c-0.07-1.37-1.25-2.44-2.63-2.36C93.064,77.007,91.993,78.187,92.074,79.557z"/>
		<path d="M59.214,194.777v-0.04l0.02,0.04c7.215,0,13.011-5.853,12.99-12.99c0.008-2.629-0.769-5.13-2.204-7.258l6.554-6.559v3.597
			c0,1.38,1.12,2.5,2.5,2.5c1.37,0,2.49-1.12,2.49-2.5v-9.573c0.031-1.479-1.179-2.547-2.49-2.547h-9.62c-1.38,0-2.5,1.12-2.5,2.5
			s1.12,2.5,2.5,2.5h3.577l-6.549,6.544c-2.121-1.429-4.608-2.204-7.267-2.204c-7.151,0-12.99,5.783-12.99,13
			C46.223,188.99,52.078,194.797,59.214,194.777z M59.223,173.777c4.439,0.02,8,3.581,8,8.01c0,4.395-3.542,7.98-8,8
			c-4.438-0.02-7.979-3.59-8-8C51.245,177.374,54.777,173.797,59.223,173.777z"/>
	</g>
	<g>
		<path fill="#72C2E9" d="M223.088,218.762c-18.486,13.389-43.482,13.389-61.968,0c-19-13.806-30.443-29.948-27.037-54.253
			l6.852-48.785c0.301-2.138-1.233-11.045-1.617-22.46c-0.877-26.38,4.413-66.093,52.787-66.093
			c48.662,0,53.54,39.974,52.609,66.422c-0.384,11.004-1.781,19.665-1.439,22.131l6.852,48.785
			C253.52,188.73,242.174,204.894,223.088,218.762z"/>
		<path fill="#4BA5C8" d="M244.713,93.593c-4.522,7.907-12.251,15.567-20.98,22.31c-10.374,8.03-22.159,14.745-31.628,19.034
			c-8.099-3.659-20.487-10.442-31.628-19.007c-8.661-6.674-16.582-14.43-21.159-22.666c-0.877-26.38,4.413-66.093,52.787-66.093
			C240.766,27.171,245.644,67.144,244.713,93.593z"/>
		<path fill="#FEB69F" d="M223.732,115.902c-10.374,8.03-22.159,14.745-31.628,19.034c-8.099-3.659-20.487-10.442-31.628-19.007
			c3.549-4.303,7.989-7.88,13.046-10.442c-7.373-5.605-12.128-14.457-12.128-24.434c0-16.965,13.745-30.71,30.71-30.71
			s30.71,13.745,30.71,30.71c0,9.976-4.755,18.829-12.128,24.434C215.84,108.101,220.394,111.828,223.732,115.902z"/>
		<path fill="#C5E5FE" d="M192.104,216.23c-8.533,0-16.696-2.646-23.608-7.651c-1.118-0.81-1.368-2.373-0.559-3.491
			c0.81-1.119,2.372-1.368,3.491-0.559c6.054,4.384,13.203,6.701,20.676,6.701c17.346,0,44.333-17.778,40.618-44.277l-3.222-22.942
			c-0.192-1.367,0.761-2.631,2.128-2.823c1.368-0.19,2.631,0.761,2.823,2.128l3.222,22.942
			C241.863,196.143,212.485,216.23,192.104,216.23z M228.109,134.108l-0.556-3.961c-0.192-1.367,0.761-2.631,2.128-2.823
			c1.366-0.19,2.631,0.761,2.823,2.128l0.556,3.961c0.192,1.367-0.761,2.631-2.128,2.823
			C229.565,136.429,228.301,135.476,228.109,134.108z"/>
		<path d="M164.15,167.747c1.258,0.527,2.739-0.068,3.26-1.37c0.52-1.28-0.1-2.74-1.37-3.26c-1.26-0.51-2.75,0.13-3.26,1.37
			C162.249,165.802,162.898,167.242,164.15,167.747z"/>
		<path d="M185.582,73.983c0-1.381-1.119-2.5-2.5-2.5h-1.142c-1.381,0-2.5,1.119-2.5,2.5s1.119,2.5,2.5,2.5h1.142
			C184.463,76.483,185.582,75.364,185.582,73.983z"/>
		<path d="M202.267,71.483h-1.142c-1.381,0-2.5,1.119-2.5,2.5s1.119,2.5,2.5,2.5h1.142c1.381,0,2.5-1.119,2.5-2.5
			S203.648,71.483,202.267,71.483z"/>
		<path d="M199.56,82.307c-1.35-0.24-2.66,0.69-2.89,2.03c-0.4,2.2-2.32,3.8-4.58,3.8c-2.24,0-4.16-1.6-4.55-3.8
			c-0.23-1.34-1.55-2.27-2.89-2.03c-1.36,0.24-2.27,1.54-2.03,2.9c0.81,4.59,4.79,7.92,9.48,7.93c4.69-0.01,8.68-3.34,9.49-7.94
			C201.829,83.847,200.92,82.547,199.56,82.307z"/>
		<path d="M159.654,220.787c19.409,14.057,45.491,14.058,64.904-0.002c19.749-14.349,31.591-31.307,28.043-56.623l-6.851-48.782
			c-1.017-7.338,17.942-90.709-53.646-90.709c-72.004,0-52.815,84.794-53.645,90.706l-6.852,48.786
			C127.919,190.478,140.919,207.175,159.654,220.787z M192.104,29.671c38.277,0,51.297,25.431,50.123,63.209
			c-3.711,6.264-9.957,12.995-18.183,19.594c-2.609-2.805-5.683-5.341-9.015-7.406c4.33-4.13,7.46-9.34,9.06-15.07
			c0.37-1.33-0.4-2.71-1.73-3.08c-1.31-0.36-2.72,0.44-3.08,1.74c-1.64,5.86-5.23,11.13-10.11,14.84
			c-1.444,1.089-1.281,3.385,0.39,4.22c3.877,1.968,7.522,4.699,10.495,7.817c-8.456,6.283-18.447,12.251-27.95,16.653
			c-4.605-2.143-16.111-7.868-27.954-16.622c3.022-3.176,6.604-5.871,10.5-7.848c1.642-0.821,1.858-3.106,0.38-4.22
			c-7.07-5.39-11.13-13.57-11.14-22.44c0.03-15.53,12.69-28.19,28.22-28.21c11.496,0,21.898,6.926,26.22,17.78
			c0.49,1.25,1.98,1.9,3.24,1.4c1.29-0.51,1.91-1.96,1.4-3.25c-2.049-5.166-5.358-9.683-9.618-13.226
			c3.544-2.555,3.982-7.194,3.798-8.694c0-1.185-1.146-2.46-2.67-2.35c-1.37,0.1-2.41,1.3-2.31,2.67c0,2.636-1.013,4.606-3.607,5.04
			c-1.64-0.94-3.353-1.721-5.117-2.362c1.624-2.195,1.867-4.772,1.183-7.338c-0.34-1.31-1.74-2.13-3.05-1.79
			c-1.372,0.359-2.132,1.755-1.79,3.06c0.609,2.3-0.279,3.642-2.32,4.502c-1.763-0.286-3.556-0.442-5.371-0.442
			c-18.329,0-33.189,14.797-33.21,33.21c0,8.955,3.592,17.625,10.29,24.01c-3.345,2.061-6.368,4.561-9.02,7.435
			c-8.476-6.774-14.638-13.469-18.355-19.933C140.702,54.646,154.316,29.671,192.104,29.671z M136.558,164.857l6.852-48.784
			c0.275-1.951-0.439-6.459-1.059-13.945c10.757,13.366,29.079,25.433,44.505,33.08c-7.828,5.15-14.471,11.993-19.386,20.009
			c-0.72,1.17-0.35,2.72,0.83,3.44c1.169,0.718,2.707,0.366,3.44-0.83c5.264-8.594,12.696-15.743,21.5-20.662
			c16.471-7.478,36.94-20.709,48.456-34.863c-0.58,7.289-1.195,11.632-0.897,13.77l6.852,48.785
			c3.351,23.912-8.263,38.975-26.028,51.881c-17.656,12.788-41.38,12.787-59.033,0.002l-4.846-3.521
			c6.757-37.923,6.351-35.792,6.786-37.702c0.31-1.35-0.54-2.69-1.88-2.99c-1.34-0.31-2.69,0.55-2.99,1.88
			c-0.498,2.198-0.1,0.128-6.37,35.325C140.542,198.629,134.179,181.836,136.558,164.857z"/>
		<path d="M220.28,79.557c0.06,1.33,1.16,2.37,2.49,2.37c0.05,0,0.09,0,0.13,0c1.371-0.082,2.433-1.209,2.37-2.63
			c-0.07-1.37-1.25-2.44-2.63-2.36C221.27,77.007,220.2,78.187,220.28,79.557z"/>
		<path d="M187.42,194.777v-0.04l0.02,0.04c7.215,0,13.011-5.853,12.99-12.99c0.008-2.629-0.769-5.13-2.204-7.258l6.554-6.559v3.597
			c0,1.38,1.12,2.5,2.5,2.5c1.37,0,2.49-1.12,2.49-2.5v-9.573c0.031-1.479-1.179-2.547-2.49-2.547h-9.62c-1.38,0-2.5,1.12-2.5,2.5
			s1.12,2.5,2.5,2.5h3.577l-6.549,6.544c-2.121-1.429-4.608-2.204-7.267-2.204c-7.151,0-12.99,5.783-12.99,13
			C174.43,188.99,180.284,194.797,187.42,194.777z M187.43,173.777c4.439,0.02,8,3.581,8,8.01c0,4.395-3.542,7.98-8,8
			c-4.438-0.02-7.979-3.59-8-8C179.451,177.374,182.983,173.797,187.43,173.777z"/>
	</g>
</g>
</svg>
