<svg xmlns="http://www.w3.org/2000/svg" viewBox="0 0 512 512"><defs><style>.cls-1{fill:#7cc8fb;}.cls-2{fill:#3e436d;}.cls-3{fill:#4f4f74;}.cls-4{fill:#32314b;}</style></defs><g id="BULINE"><circle class="cls-1" cx="256" cy="256" r="256"/></g><g id="Icons"><path class="cls-2" d="M477.39,250.14h34.54c-.09-4.23-.29-8.45-.59-12.63H477.39V127.4a254,254,0,0,0-19.1-28.3h-41.9V61.5H403.76V99.1H350.37v12.64h53.39V237.51H342V221.88H356.3V209.24H321.65v-67.8H356.3V128.81H321.65V53.12H309v75.69H281.65V53.11H269v75.7H241.65V53.11H229v75.7H201.65V53.12H189v75.69h-35.6v12.63H189v67.8h-35.6v12.64H189v15.63h-82.1V111.74h53.38V99.1H106.91V61.5H94.27V99.1H53.71a254.85,254.85,0,0,0-20.44,30.62V237.51H.66c-.3,4.18-.5,8.4-.59,12.63h33.2v120H26.78a255,255,0,0,0,19.13,32.2V382.75H94.27v37.61h12.64V382.75H189V458.9h12.64V382.75H229v76.14h12.64V382.75H269v76.14h12.64V382.75H309V458.9h12.64V382.75h82.11v37.61h12.63V382.75h48.37V404.2q6.75-9.48,12.63-19.6v-1.85h1.07q3.56-6.21,6.76-12.64h-7.83Zm-383.12,120H45.91v-120H94.27Zm0-132.6H45.91V111.74H94.27ZM189,289.68h-35.6v12.64H189v67.79h-82.1v-120H189Zm52.64-148.24H269v67.8H241.65Zm0,80.44H269v67.8H241.65Zm-40-80.44H229v67.8H201.65Zm0,80.44H229v15.63H201.65Zm0,28.26H229v39.54H201.65Zm27.36,120H201.65V350.06H229Zm40,0H241.65V350.06H269Zm40,0H281.65V350.06H309Zm0-32.69H201.65v-35.1H309Zm0-128.18H281.65v-67.8H309Zm94.75,160.87H321.65V302.32H356.3V289.68H342V250.14h61.75Zm61,0H416.39v-120h48.37Zm0-132.6H416.39V111.74h48.37Z"/><rect class="cls-3" x="304.96" y="209.24" width="37.06" height="93.07"/><path class="cls-4" d="M143.29,62.77V449.24a9.66,9.66,0,0,0,9.65,9.66h204.7a9.66,9.66,0,0,0,9.65-9.66V62.77a9.65,9.65,0,0,0-9.65-9.65H152.94A9.65,9.65,0,0,0,143.29,62.77ZM342,433.62H168.57V78.4H342Z"/><circle class="cls-4" cx="283.96" cy="232.84" r="6.33"/><circle class="cls-4" cx="327.46" cy="232.84" r="6.33"/><circle class="cls-4" cx="283.96" cy="279.17" r="6.33"/><circle class="cls-4" cx="327.46" cy="279.17" r="6.33"/><path class="cls-4" d="M315.13,270.53l-6.22-14.19a9.84,9.84,0,1,0-7.9,0l-6.23,14.19a2.36,2.36,0,0,0,2.16,3.31h16A2.36,2.36,0,0,0,315.13,270.53Z"/></g></svg>