<svg xmlns="http://www.w3.org/2000/svg" viewBox="0 0 313.68 44.31"><defs><style>.cls-1{fill:#2fff2b;}</style></defs><g id="Layer_2" data-name="Layer 2"><g id="Layer_1-2" data-name="Layer 1"><path class="cls-1" d="M77,44.3a21.15,21.15,0,0,1-15.66-6.48,21.16,21.16,0,0,1-6.49-15.67A21.14,21.14,0,0,1,61.37,6.49,21.21,21.21,0,0,1,77,0H84A21.44,21.44,0,0,1,99.62,6.49a21.17,21.17,0,0,1,6.48,15.66,21.19,21.19,0,0,1-6.48,15.67A21.13,21.13,0,0,1,84,44.3ZM77,9.71A12.46,12.46,0,0,0,64.59,22.15,12.46,12.46,0,0,0,77,34.6H84A12.48,12.48,0,0,0,96.4,22.15,12.48,12.48,0,0,0,84,9.71Z"/><path class="cls-1" d="M131.89,44.31l-7.65-9.72h16.33A13.07,13.07,0,0,0,150,30.72a12,12,0,0,0,3.43-8.38,12.58,12.58,0,0,0-3.65-9A12,12,0,0,0,141,9.72H121.65V44.31h0a9.72,9.72,0,0,1-9.71-9.72V0h28.53A22.91,22.91,0,0,1,157,6.86a21.15,21.15,0,0,1,6.12,15.56,22.06,22.06,0,0,1-6.49,15.4A21.19,21.19,0,0,1,141,44.31Z"/><path class="cls-1" d="M188.84,44.31l-7.65-9.72h16.33A13.06,13.06,0,0,0,207,30.72a12,12,0,0,0,3.43-8.38,12.54,12.54,0,0,0-3.65-9A12,12,0,0,0,198,9.72H178.61V44.31h0a9.72,9.72,0,0,1-9.72-9.72V0h28.54A22.94,22.94,0,0,1,214,6.86a21.18,21.18,0,0,1,6.11,15.56,22,22,0,0,1-6.49,15.4A21.18,21.18,0,0,1,198,44.31Z"/><path class="cls-1" d="M266.94,44.3h-41.1V9.73A9.73,9.73,0,0,1,235.57,0h0V34.6h23.71Z"/><path class="cls-1" d="M306,34.6l7.67,9.7H272.57V0h41.11L306,9.71H282.3v7.58H306A9.73,9.73,0,0,1,296.29,27h-14V34.6Z"/><path class="cls-1" d="M37.6,17.29H17.51a3.79,3.79,0,0,1-2.68-6.47,3.72,3.72,0,0,1,2.68-1.1H40A2.22,2.22,0,0,1,42.1,12.5l-1,3.85S54.42.69,55.11,0H17.51A13.28,13.28,0,0,0,8.69,3.28,13,13,0,0,0,4,13.39a13.55,13.55,0,0,0,4,9.66,12.89,12.89,0,0,0,9.54,4H37.6a3.79,3.79,0,1,1,0,7.58H15.16A2.22,2.22,0,0,1,13,31.81L14,28S.69,43.62,0,44.31H37.6a13.29,13.29,0,0,0,8.92-3.37A13,13,0,0,0,51.11,30.8a13,13,0,0,0-4.59-10.14A13.29,13.29,0,0,0,37.6,17.29Z"/></g></g></svg>