<?xml version="1.0" encoding="iso-8859-1"?>
<!-- Generator: Adobe Illustrator 19.0.0, SVG Export Plug-In . SVG Version: 6.00 Build 0)  -->
<svg version="1.1" id="Layer_1" xmlns="http://www.w3.org/2000/svg" xmlns:xlink="http://www.w3.org/1999/xlink" x="0px" y="0px"
	 viewBox="0 0 512.001 512.001" style="enable-background:new 0 0 512.001 512.001;" xml:space="preserve">
<g>
	<path style="fill:#B3B3B3;" d="M211.267,476.23c-0.903,0.953-1.907,1.831-3.013,2.631c-27.267,19.589-62.454,28.386-98.747,20.949
		C48.045,487.238,5.892,431.331,9.782,368.724c2.428-39.128,22.526-50.975,6.331-144.701l82.132-47.962l34.818,61.107
		c3.292,5.784,4.538,12.191,3.953,18.356c-0.928,9.814-6.47,19.03-15.737,24.166c-16.36,9.076-28.818,19.297-38.301,29.505
		c-28.411,30.636-30,61.285-30,61.285c-5.174,44.746,26.924,85.221,71.683,90.395c18.42,2.123,36.115-2.059,50.924-10.856
		c2.631-1.551,5.174-3.254,7.615-5.098c7.856-5.937,18.877-5.301,26.263,1.22l0.292,0.267
		C218.704,454.314,219.098,467.903,211.267,476.23z"/>
	<path style="fill:#B3B3B3;" d="M476.274,211.21c-8.314,7.881-21.941,7.513-29.873-1.462l-0.254-0.292
		c-6.521-7.386-7.17-18.407-1.233-26.263c1.843-2.428,3.547-4.97,5.11-7.602c8.797-14.809,12.979-32.505,10.843-50.937
		c-5.161-44.759-45.636-76.844-90.395-71.67c0,0-30.649,1.589-61.285,30c-10.208,9.483-20.428,21.941-29.492,38.301
		c-5.148,9.292-14.403,14.848-24.242,15.737c-6.14,0.572-12.521-0.674-18.28-3.953l-61.107-34.831l47.95-82.12
		c93.738,16.182,105.586-3.915,144.701-6.343c62.607-3.877,118.514,38.276,131.099,99.726c7.424,36.293-1.36,71.48-20.962,98.76
		C478.067,209.354,477.202,210.333,476.274,211.21z"/>
</g>
<g>
	<path style="fill:#CCCCCC;" d="M444.914,183.193c-5.937,7.856-5.288,18.877,1.233,26.263l0.254,0.292
		c7.932,8.975,21.56,9.343,29.873,1.462c-24.738,29.263-62.518,46.856-103.705,44.276c-62.085-3.864-110.823-52.234-117.052-112.133
		l-0.064-6.331c9.839-0.89,19.093-6.445,24.242-15.737c9.064-16.36,19.284-28.818,29.492-38.301l0.013,0.013
		c-22.5,32.759-19.17,77.899,9.928,107.01c32.848,32.835,86.098,32.848,118.959,0c0,0,6.788-6.801,11.886-14.441l0.051,0.025
		C448.46,178.222,446.757,180.765,444.914,183.193z"/>
	<path style="fill:#CCCCCC;" d="M175.559,449.967c7.653-5.098,14.441-11.886,14.441-11.886c32.861-32.848,32.848-86.111,0-118.946
		c-29.098-29.11-74.238-32.441-107.01-9.928l-0.013-0.013c9.483-10.208,21.941-20.428,38.301-29.505
		c9.267-5.136,14.809-14.352,15.737-24.166h6.343c59.899,6.229,108.268,54.954,112.133,117.039
		c2.568,41.161-15,78.929-44.225,103.666c7.831-8.326,7.437-21.915-1.513-29.822l-0.292-0.267
		c-7.386-6.521-18.407-7.157-26.263-1.22c-2.441,1.843-4.983,3.547-7.614,5.098L175.559,449.967z"/>
</g>
<g>
	<path style="fill:#333333;" d="M509.155,107.592c-6.538-31.939-24.424-60.367-50.364-80.047
		c-25.854-19.616-58.043-29.3-90.659-27.281c-12.666,0.786-22.828,3.336-32.655,5.8c-21.718,5.45-46.337,11.626-109.834,0.657
		c-3.919-0.674-7.85,1.152-9.856,4.588l-18.922,32.405C113.097,45.25,45.251,113.096,43.714,196.862l-32.407,18.923
		c-3.435,2.006-5.264,5.935-4.586,9.856c10.968,63.498,4.792,88.114-0.657,109.834c-2.465,9.828-5.015,19.99-5.8,32.655
		c-2.022,32.61,7.667,64.807,27.281,90.661c19.681,25.94,48.109,43.826,80.047,50.364c9.308,1.906,18.622,2.846,27.843,2.846
		c27.994,0,55.112-8.676,78.385-25.399c1.449-1.041,2.785-2.198,4.007-3.45c32.199-27.491,49.816-68.897,47.179-111.175
		c-1.998-32.081-15.396-62.449-37.72-85.51c-21.641-22.352-50.374-36.561-81.08-40.194c-0.759-4.798-2.38-9.47-4.859-13.822
		l-34.823-61.108c-1.261-2.212-3.355-3.828-5.813-4.487c-2.453-0.661-5.078-0.309-7.279,0.975l-29.927,17.474
		c6.746-64.028,57.77-115.051,121.797-121.798l-17.475,29.928c-1.284,2.198-1.635,4.819-0.976,7.279
		c0.661,2.46,2.277,4.552,4.489,5.812l61.108,34.823c4.351,2.48,9.024,4.101,13.822,4.86c3.632,30.706,17.841,59.439,40.193,81.078
		c23.061,22.326,53.427,35.722,85.509,37.722c2.781,0.174,5.553,0.259,8.323,0.259c37.437,0,73.508-15.718,99.044-43.162
		c1.302-1.4,6.223-6.84,7.26-8.284C508.833,182.879,516.843,145.153,509.155,107.592z M144.664,265.293
		c26.095,3.249,50.498,15.403,68.923,34.436c19.17,19.8,30.673,45.879,32.389,73.432c1.708,27.379-6.478,54.332-22.461,76.061
		c-1.745-3.744-4.255-7.144-7.457-9.973l-0.29-0.254c-2.798-2.471-5.95-4.34-9.28-5.621c11.475-15.846,17.685-34.828,17.684-54.773
		c-0.001-25.012-9.742-48.527-27.427-66.212c-18.08-18.08-42.004-27.397-66.099-27.444
		C137.213,280.007,142.077,273.215,144.664,265.293z M89.176,316.554c29.48-19.718,68.895-15.871,94.087,9.319
		c14.085,14.085,21.843,32.811,21.844,52.729c0.001,19.921-7.757,38.651-21.839,52.734c-0.062,0.061-6.21,6.176-12.994,10.7
		l0.018,0.027c-13.396,7.832-28.916,11.142-44.542,9.337c-19.115-2.208-36.228-11.728-48.184-26.806
		c-11.954-15.079-17.324-33.911-15.116-53.026c0.024-0.2,0.039-0.4,0.051-0.601C62.519,370.605,64.271,343.916,89.176,316.554z
		 M94.729,189.155l30.052,52.737c2.889,5.07,3.614,10.956,2.039,16.575c-1.553,5.539-5.162,10.116-10.161,12.887
		c-67.287,37.302-72.799,92.832-73.178,98.274c-2.719,24.09,4.075,47.809,19.146,66.813c15.121,19.069,36.761,31.109,60.938,33.902
		c23.388,2.697,46.609-3.628,65.385-17.82c4.163-3.146,10.137-2.826,14.207,0.772l0.29,0.255c2.611,2.306,4.007,5.626,3.833,9.112
		c-0.127,2.53-1.086,4.879-2.691,6.727c-0.13,0.108-0.256,0.221-0.385,0.329l0.033,0.039c-0.468,0.491-0.974,0.953-1.536,1.358
		c-26.572,19.092-58.987,25.967-91.28,19.358c-27.406-5.61-51.796-20.954-68.679-43.208c-16.856-22.217-25.181-49.901-23.441-77.955
		c0.676-10.912,2.905-19.793,5.264-29.196c5.714-22.776,12.165-48.492,2.044-111.18L94.729,189.155z M373.163,245.976
		c-27.553-1.717-53.631-13.22-73.432-32.39c-19.034-18.426-31.188-42.828-34.436-68.923c7.921-2.587,14.713-7.451,19.651-14.016
		c0.047,24.094,9.364,48.017,27.444,66.099c17.685,17.686,41.2,27.426,66.212,27.429c0.004,0,0.004,0,0.008,0
		c19.94,0,38.919-6.21,54.765-17.684c1.283,3.332,3.155,6.486,5.628,9.286l0.257,0.29c2.825,3.197,6.22,5.706,9.961,7.451
		C427.494,239.498,400.544,247.681,373.163,245.976z M442.064,170.29l-0.027-0.018c-4.486,6.73-10.641,12.937-10.695,12.99
		c-14.086,14.086-32.813,21.844-52.732,21.843c-0.001,0-0.005,0-0.006,0c-19.918-0.001-38.644-7.759-52.728-21.843
		c-25.25-25.25-29.056-64.792-9.186-94.294c26.811-24.402,52.834-26.379,54.278-26.469c0.201-0.01,0.4-0.027,0.601-0.051
		c19.118-2.207,37.949,3.16,53.027,15.116s24.599,29.067,26.807,48.184C453.206,141.373,449.897,156.894,442.064,170.29z
		 M471.117,202.693c-0.404,0.563-0.867,1.069-1.359,1.538l-0.039-0.033c-0.108,0.13-0.22,0.254-0.328,0.384
		c-1.85,1.607-4.199,2.564-6.728,2.691c-3.475,0.173-6.806-1.222-9.117-3.839l-0.257-0.29c-3.59-4.064-3.911-10.036-0.764-14.199
		c14.193-18.777,20.521-41.998,17.818-65.385c-2.792-24.176-14.832-45.817-33.902-60.938c-16.265-12.896-35.978-19.73-56.426-19.73
		c-3.445,0-6.913,0.193-10.386,0.586c-5.436,0.379-60.971,5.888-98.275,73.179c-2.771,5-7.348,8.607-12.887,10.161
		c-5.62,1.575-11.504,0.852-16.575-2.038l-52.736-30.052l39.778-68.125c62.688,10.12,88.406,3.669,111.182-2.045
		c9.402-2.358,18.284-4.586,29.194-5.263c28.06-1.744,55.74,6.586,77.955,23.44c22.254,16.884,37.598,41.275,43.208,68.68
		C497.084,143.705,490.209,176.121,471.117,202.693z"/>
	<circle style="fill:#333333;" cx="248.406" cy="77.467" r="9.534"/>
	<circle style="fill:#333333;" cx="77.472" cy="248.418" r="9.534"/>
</g>
<g>
</g>
<g>
</g>
<g>
</g>
<g>
</g>
<g>
</g>
<g>
</g>
<g>
</g>
<g>
</g>
<g>
</g>
<g>
</g>
<g>
</g>
<g>
</g>
<g>
</g>
<g>
</g>
<g>
</g>
</svg>
