<?xml version="1.0" encoding="utf-8"?>
<!-- Generator: Adobe Illustrator 23.0.5, SVG Export Plug-In . SVG Version: 6.00 Build 0)  -->
<svg version="1.1" id="Layer_1" xmlns="http://www.w3.org/2000/svg" xmlns:xlink="http://www.w3.org/1999/xlink" x="0px" y="0px"
	 viewBox="0 0 595.3 595.3" style="enable-background:new 0 0 595.3 595.3;" xml:space="preserve">
<style type="text/css">
	.st0{fill:none;stroke:#231F20;stroke-width:0.763;stroke-miterlimit:10;}
	.st1{fill:#FFFFFF;}
	.st2{fill:#242621;}
	.st3{fill:#72BE44;}
	.st4{fill:#2FFF2B;}
	.st5{fill:#2EFE2B;}
	.st6{fill:#73FF71;}
	.st7{fill:#A1FDA0;}
</style>
<rect y="0" width="595.3" height="595.3"/>
<path class="st1" d="M354.7,271.2l-113.3-1.9c-5.8-0.1-11-2.3-15-6.5s-6.1-9.4-6-15.2c0.1-5.8,2.3-11,6.5-15c4.1-4,9.4-6.1,15.2-6
	l126.5,2.1c8.2,0.1,14.1,8,11.8,15.9l-6.1,21.6c0,0,76.7-87,80.6-90.8l-212-3.6c-18.2-0.3-36.2,5.7-50,17.6
	c-17.9,15.4-26.8,33.8-27.4,56.5c-0.5,20.3,7.3,40.2,21.4,54.9c14.8,15.3,32.2,22.9,53.4,23.2l113.3,1.9c5.8,0.1,11,2.3,15,6.5
	c4,4.1,6.1,9.4,6,15.2s-2.3,11-6.5,15c-4.1,4-9.4,6.1-15.2,6l-126.5-2.1c-8.2-0.1-14.1-8-11.8-15.9l6.1-21.6c0,0-76.7,87-80.6,90.8
	l212,3.6c18.5,0.3,36.7-6,50.6-18.1c17.7-15.5,26.4-33.9,26.8-56.7c0.4-22.8-7.8-41.5-24.9-57.6
	C391.2,278.4,373.2,271.5,354.7,271.2z"/>
</svg>
