<?xml version="1.0" encoding="utf-8"?>
<!-- Generator: Adobe Illustrator 23.0.5, SVG Export Plug-In . SVG Version: 6.00 Build 0)  -->
<svg version="1.1" id="Layer_1" xmlns="http://www.w3.org/2000/svg" xmlns:xlink="http://www.w3.org/1999/xlink" x="0px" y="0px"
	 viewBox="0 0 595.3 595.3" style="enable-background:new 0 0 595.3 595.3;" xml:space="preserve">
<style type="text/css">
	.st0{fill:none;stroke:#231F20;stroke-width:0.763;stroke-miterlimit:10;}
	.st1{fill:#72BE44;}
	.st2{fill:#242621;}
	.st3{fill:#03B500;}
	.st4{fill:#2EFE2B;}
	.st5{fill:#73FF71;}
	.st6{fill:#A1FDA0;}
</style>
<g>
	<path d="M208.3,322.4c-6.9,0-12.6-2.4-17.5-7.3c-4.9-4.9-7.3-10.6-7.3-17.5c0-6.9,2.4-12.6,7.3-17.5c4.9-4.9,10.6-7.3,17.5-7.3h7.7
		c6.8,0,12.7,2.4,17.5,7.3c4.9,4.9,7.3,10.6,7.3,17.5c0,6.9-2.4,12.6-7.3,17.5c-4.9,4.9-10.6,7.3-17.5,7.3H208.3z M208.3,283.7
		c-3.8,0-7.1,1.4-9.8,4.1c-2.7,2.8-4.1,6.1-4.1,9.8c0,3.8,1.4,7.1,4.1,9.8c2.8,2.7,6.1,4.1,9.8,4.1h7.7c3.8,0,7.1-1.4,9.8-4.1
		c2.7-2.8,4.1-6.1,4.1-9.8c0-3.8-1.4-7.1-4.1-9.8c-2.8-2.7-6.1-4.1-9.8-4.1H208.3z"/>
	<path d="M269.7,322.4l-8.6-10.9l18.3,0c4,0,7.8-1.5,10.6-4.3c2.5-2.6,3.8-5.8,3.8-9.4c0.1-3.7-1.4-7.4-4.1-10.1
		c-2.7-2.7-6-4.1-9.8-4.1h-21.7v38.7h0c-6,0-10.9-4.9-10.9-10.9v-38.7h31.9c7,0,13.7,2.7,18.5,7.7c4.7,4.9,6.9,10.6,6.8,17.4
		c-0.1,6.5-2.7,12.7-7.3,17.2c-4.9,4.9-10.6,7.3-17.5,7.3H269.7z"/>
	<path d="M333.5,322.4l-8.6-10.9l18.3,0c4,0,7.8-1.5,10.6-4.3c2.5-2.6,3.8-5.8,3.8-9.4c0.1-3.7-1.4-7.4-4.1-10.1
		c-2.7-2.7-6-4.1-9.8-4.1H322v38.7h0c-6,0-10.9-4.9-10.9-10.9v-38.7h31.9c7,0,13.7,2.7,18.5,7.7c4.7,4.9,6.9,10.6,6.8,17.4
		c-0.1,6.5-2.7,12.7-7.3,17.2c-4.9,4.9-10.6,7.3-17.5,7.3H333.5z"/>
	<path d="M420.9,322.4h-46v-38.7c0-6,4.9-10.9,10.9-10.9l0,0v38.7h26.5L420.9,322.4z"/>
	<path d="M464.6,311.6l8.6,10.9h-46v-49.6h46l-8.6,10.9H438v8.5h26.5v0c0,6-4.9,10.9-10.9,10.9H438v8.5H464.6z"/>
</g>
<path class="st3" d="M164.2,292.2l-22.5,0c-1.2,0-2.2-0.4-3-1.2c-0.8-0.8-1.2-1.8-1.2-3s0.4-2.2,1.2-3c0.8-0.8,1.8-1.2,3-1.2h25.1
	c1.6,0,2.8,1.5,2.4,3.1l-1.1,4.3c0,0,14.9-17.5,15.7-18.3l-42.1,0c-3.6,0-7.2,1.3-9.9,3.7c-3.5,3.1-5.2,6.8-5.2,11.3
	c0,4,1.6,8,4.4,10.8c3,3,6.5,4.4,10.7,4.4h22.5c1.2,0,2.2,0.4,3,1.2c0.8,0.8,1.2,1.8,1.2,3c0,1.2-0.4,2.2-1.2,3
	c-0.8,0.8-1.8,1.2-3,1.2h-25.1c-1.6,0-2.8-1.5-2.4-3.1l1.1-4.3c0,0-14.9,17.5-15.7,18.3l42.1,0c3.7,0,7.3-1.3,10-3.8
	c3.5-3.1,5.1-6.8,5.1-11.3c0-4.5-1.7-8.2-5.1-11.3C171.5,293.5,167.9,292.2,164.2,292.2z"/>
</svg>
