<svg id="Layer_1" data-name="Layer 1" xmlns="http://www.w3.org/2000/svg" viewBox="0 0 122.88 97.71"><title>strategy-plan</title><path d="M59.94,36.31c-.87.07-1.72.17-2.55.28-8.68,1.24-15.19,4.95-19.61,10a31.16,31.16,0,0,0-7.26,18.58,37.52,37.52,0,0,0,.13,6.08,13.39,13.39,0,1,1-10.74,2l.4-.27a47.57,47.57,0,0,1-.23-8.43,41.56,41.56,0,0,1,9.8-24.81c6-6.92,14.67-11.94,26-13.56,1.22-.18,2.48-.31,3.78-.41l-6.44-5.37,6.72-8L80.79,29.79,62.09,49.13l-7.53-7.25,5.38-5.57ZM103.39,7.12a19.38,19.38,0,0,1,13.76,5.71h0a19.46,19.46,0,0,1,0,27.54h0a19.45,19.45,0,0,1-27.53,0h0a19.48,19.48,0,0,1,0-27.54h0a19.42,19.42,0,0,1,13.77-5.71Zm8,11.48a11.37,11.37,0,1,0,3.3,8,11.32,11.32,0,0,0-3.3-8ZM59.5,83.55l8.76-5-5-8.77,8.21-4.66,5,8.76,8.77-5,4.66,8.21-8.76,5,5,8.76L77.9,95.53l-5-8.76-8.76,5L59.5,83.55ZM0,18.41l8.76-5-5-8.77L12,0l5,8.76,8.76-5L30.39,12l-8.76,5,5,8.76L18.4,30.39l-5-8.76-8.77,5L0,18.41ZM31.51,81.56a4.87,4.87,0,1,0,.77,3.63,4.84,4.84,0,0,0-.77-3.63Z"/></svg>