<?xml version="1.0" encoding="iso-8859-1"?>
<!-- Generator: Adobe Illustrator 19.0.0, SVG Export Plug-In . SVG Version: 6.00 Build 0)  -->
<svg version="1.1" id="Layer_1" xmlns="http://www.w3.org/2000/svg" xmlns:xlink="http://www.w3.org/1999/xlink" x="0px" y="0px"
	 viewBox="0 0 512 512" style="enable-background:new 0 0 512 512;" xml:space="preserve">
<g>
	<path style="fill:#00B3E3;" d="M102.799,23.997c21.533,0,41.152,8.182,55.92,21.608c7.857-3.258,16.466-5.063,25.501-5.063
		c34.223,0,62.419,25.805,66.185,59.021c0.286,2.493,0.846,7.596-6.338,7.596c-6.428,0-181.004,0-217.702,0
		c-4.318,0-6.593-5.516-6.328-8.22C24.166,56.866,59.643,23.997,102.799,23.997z"/>
	<path style="fill:#00B3E3;" d="M414.781,126.16c-21.533,0-41.152,8.182-55.92,21.608c-7.857-3.258-16.466-5.063-25.501-5.063
		c-34.223,0-62.419,25.805-66.185,59.021c-0.286,2.493-0.846,7.596,6.338,7.596c6.428,0,181.004,0,217.702,0
		c4.318,0,6.593-5.516,6.328-8.22C493.414,159.029,457.938,126.16,414.781,126.16z"/>
</g>
<path style="fill:#F2D383;" d="M330.622,88.76c5.822,0,6.867-2.979,2.324-6.619l-68.688-55.034c-4.543-3.639-11.977-3.639-16.52,0
	l-68.688,55.034c-4.543,3.639-3.497,6.619,2.324,6.619H330.622z"/>
<path style="opacity:0.2;enable-background:new    ;" d="M332.947,82.142l-20.142-16.139H199.194l-20.142,16.139
	c-4.543,3.639-3.497,6.619,2.324,6.619h149.245C336.444,88.76,337.49,85.781,332.947,82.142z"/>
<rect x="158.866" y="125.493" style="fill:#0071CE;" width="194.272" height="350.493"/>
<rect x="227.254" y="415.473" style="fill:#F2D383;" width="57.486" height="60.598"/>
<g>
	<rect x="158.866" y="341.666" style="fill:#00B3E3;" width="194.272" height="47.491"/>
	<rect x="158.866" y="228.504" style="fill:#00B3E3;" width="194.272" height="47.491"/>
</g>
<path style="fill:#333E48;" d="M504.061,483.729c0,2.351-1.922,4.275-4.275,4.275H12.214c-2.352,0-4.275-1.924-4.275-4.275v-15.302
	c0-2.353,1.923-4.277,4.275-4.277h487.573c2.353,0,4.275,1.924,4.275,4.277V483.729z"/>
<rect x="127.589" y="464.152" style="fill:#A4A9AD;" width="256.828" height="23.855"/>
<rect x="193.023" y="125.493" style="opacity:0.2;enable-background:new    ;" width="15.877" height="338.659"/>
<rect x="303.105" y="125.493" style="opacity:0.2;enable-background:new    ;" width="15.877" height="338.659"/>
<path style="fill:#F2D383;" d="M353.139,125.491V86.729c0-5.822-4.763-10.585-10.585-10.585H169.446
	c-5.822,0-10.585,4.763-10.585,10.585v38.762H353.139z"/>
<path style="opacity:0.2;enable-background:new    ;" d="M200.959,115.285c-4.385,0-7.939-3.553-7.939-7.939v-12
	c0-4.385,3.553-7.939,7.939-7.939c4.385,0,7.939,3.553,7.939,7.939v12C208.897,111.732,205.344,115.285,200.959,115.285z"/>
<path style="opacity:0.2;enable-background:new    ;" d="M255.999,115.285c-4.385,0-7.939-3.553-7.939-7.939v-12
	c0-4.385,3.553-7.939,7.939-7.939c4.385,0,7.939,3.553,7.939,7.939v12C263.938,111.732,260.385,115.285,255.999,115.285z"/>
<path style="opacity:0.2;enable-background:new    ;" d="M311.04,115.285c-4.385,0-7.939-3.553-7.939-7.939v-12
	c0-4.385,3.553-7.939,7.939-7.939c4.385,0,7.939,3.553,7.939,7.939v12C318.979,111.732,315.425,115.285,311.04,115.285z"/>
<path style="fill:#00AD68;" d="M195.347,427.664c0-20.15-16.337-89.367-36.487-89.367c-20.148,0-36.485,69.217-36.485,89.367
	s16.336,36.485,36.485,36.485C179.01,464.149,195.347,447.815,195.347,427.664z"/>
<g>
	<path style="fill:#218649;" d="M100.721,427.664c0-20.15-16.336-89.367-36.487-89.367c-20.148,0-36.485,69.217-36.485,89.367
		s16.335,36.485,36.485,36.485C84.386,464.149,100.721,447.815,100.721,427.664z"/>
	<path style="fill:#218649;" d="M411.279,427.664c0-20.15,16.336-89.367,36.487-89.367c20.148,0,36.485,69.217,36.485,89.367
		s-16.336,36.485-36.485,36.485C427.614,464.149,411.279,447.815,411.279,427.664z"/>
</g>
<path style="fill:#00AD68;" d="M316.653,427.664c0-20.15,16.336-89.367,36.487-89.367c20.148,0,36.485,69.217,36.485,89.367
	s-16.336,36.485-36.485,36.485C332.99,464.149,316.653,447.815,316.653,427.664z"/>
<rect x="248.064" y="415.473" style="opacity:0.2;enable-background:new    ;" width="15.877" height="48.671"/>
<rect x="248.064" y="228.504" style="opacity:0.1;enable-background:new    ;" width="15.877" height="47.491"/>
<rect x="248.064" y="341.666" style="opacity:0.1;enable-background:new    ;" width="15.877" height="47.491"/>
<path style="fill:#1E252B;" d="M499.786,456.21h-18.018c6.497-7.727,10.421-17.685,10.421-28.546
	c0-10.394-3.888-33.115-11.093-54.749c-9.539-28.637-20.44-42.557-33.329-42.557c-12.89,0-23.792,13.92-33.331,42.557
	c-7.206,21.633-11.093,44.352-11.093,54.749c0,10.861,3.924,20.819,10.422,28.546h-26.62c6.498-7.727,10.422-17.685,10.422-28.546
	c0-10.394-3.888-33.115-11.093-54.749c-7.516-22.562-15.879-35.984-25.392-40.664V217.259h130.137c3.726,0,7.233-1.607,9.876-4.522
	c3.007-3.316,4.756-8.305,4.351-12.412c-2.196-22.397-12.601-43.116-29.296-58.338c-16.808-15.326-38.602-23.766-61.365-23.766
	c-19.443,0-38.177,6.174-53.704,17.524V86.728c0-10.213-8.31-18.523-18.523-18.523H328.25l-59.024-47.294
	c-7.416-5.939-19.031-5.94-26.447,0.001l-24.717,19.805c-10.436-5.319-22.023-8.114-33.838-8.114
	c-8.197,0-16.211,1.316-23.888,3.916c-16.223-13.23-36.466-20.461-57.532-20.461c-22.764,0-44.558,8.44-61.365,23.766
	c-16.698,15.223-27.103,35.942-29.3,58.338c-0.404,4.108,1.345,9.097,4.351,12.413c2.643,2.916,6.151,4.522,9.876,4.522h124.557
	v217.156c-9.512,4.681-17.877,18.101-25.392,40.664c-7.206,21.633-11.094,44.353-11.094,54.749c0,10.861,3.924,20.819,10.422,28.546
	h-26.62c6.498-7.727,10.422-17.685,10.422-28.546c0-10.395-3.888-33.115-11.094-54.749c-9.539-28.637-20.442-42.557-33.331-42.557
	s-23.791,13.92-33.329,42.557c-7.206,21.633-11.093,44.353-11.093,54.749c0,10.861,3.924,20.819,10.421,28.546H12.214
	C5.48,456.21,0,461.691,0,468.426v15.302c0,6.734,5.48,12.214,12.214,12.214h487.573c6.734,0,12.214-5.48,12.214-12.214v-15.302
	C512,461.691,506.52,456.21,499.786,456.21z M361.077,155.378c1.138-0.332,2.212-0.906,3.124-1.736
	c13.864-12.602,31.826-19.544,50.58-19.544c18.797,0,36.792,6.968,50.667,19.621c13.665,12.459,22.226,29.368,24.143,47.662H361.077
	V155.378z M45.97,377.934c8.618-25.873,16.266-31.697,18.266-31.697c2.001,0,9.649,5.824,18.268,31.697
	c6.35,19.063,10.28,40.656,10.28,49.73c0,15.741-12.806,28.546-28.548,28.546c-15.741,0-28.546-12.805-28.546-28.546
	C35.69,418.59,39.62,396.996,45.97,377.934z M119.647,480.065H15.877v-7.978h103.77V480.065z M342.554,84.083
	c1.434,0,2.646,1.212,2.646,2.646v30.824H166.8V86.729c0-1.434,1.212-2.646,2.646-2.646H342.554z M319.136,456.21h-26.46v-40.732
	c0-4.385-3.553-7.939-7.939-7.939h-57.485c-4.385,0-7.939,3.553-7.939,7.939v40.732h-26.451
	c6.498-7.727,10.422-17.685,10.422-28.546c0-10.395-3.888-33.115-11.093-54.749c-7.515-22.561-15.878-35.982-25.392-40.663V133.429
	h178.4v198.824c-9.514,4.682-17.878,18.102-25.392,40.663c-7.206,21.633-11.093,44.352-11.093,54.749
	C308.715,438.525,312.638,448.484,319.136,456.21z M276.8,423.416v32.794h-41.608v-32.794H276.8z M252.703,33.303
	c1.633-1.308,4.96-1.307,6.593-0.001l43.56,34.903h-93.715L252.703,33.303z M27.989,99.219
	c1.917-18.293,10.478-35.203,24.143-47.662c13.876-12.653,31.87-19.621,50.667-19.621c18.754,0,36.716,6.941,50.58,19.544
	c2.275,2.067,5.54,2.636,8.381,1.459c7.132-2.957,14.688-4.457,22.46-4.457c6.809,0,13.52,1.177,19.846,3.447l-20.315,16.277
	h-14.305c-10.213,0-18.523,8.31-18.523,18.523V99.22H27.989V99.219z M140.594,377.934c8.618-25.873,16.266-31.697,18.266-31.697
	s9.649,5.824,18.268,31.697c6.35,19.063,10.28,40.656,10.28,49.73c0,15.741-12.806,28.546-28.548,28.546
	c-15.741,0-28.546-12.805-28.546-28.546C130.314,418.59,134.244,396.996,140.594,377.934z M376.476,480.065H135.524v-7.978h240.952
	V480.065z M353.14,456.21c-15.742,0-28.548-12.805-28.548-28.546c0-9.074,3.93-30.668,10.28-49.73
	c8.619-25.873,16.268-31.697,18.268-31.697c2.001,0,9.648,5.824,18.266,31.697c6.35,19.063,10.28,40.656,10.28,49.73
	C381.686,443.405,368.881,456.21,353.14,456.21z M429.497,377.934c8.619-25.873,16.268-31.697,18.268-31.697
	c2.001,0,9.648,5.824,18.266,31.697c6.35,19.063,10.28,40.656,10.28,49.73c0,15.741-12.805,28.546-28.546,28.546
	c-15.742,0-28.548-12.805-28.548-28.546C419.217,418.59,423.147,396.996,429.497,377.934z M496.123,480.065h-103.77v-7.978h103.77
	L496.123,480.065L496.123,480.065z"/>
<g>
</g>
<g>
</g>
<g>
</g>
<g>
</g>
<g>
</g>
<g>
</g>
<g>
</g>
<g>
</g>
<g>
</g>
<g>
</g>
<g>
</g>
<g>
</g>
<g>
</g>
<g>
</g>
<g>
</g>
</svg>
