<?xml version="1.0" encoding="iso-8859-1"?>
<!-- Generator: Adobe Illustrator 19.0.1, SVG Export Plug-In . SVG Version: 6.00 Build 0)  -->
<svg version="1.1" xmlns="http://www.w3.org/2000/svg" xmlns:xlink="http://www.w3.org/1999/xlink" x="0px" y="0px"
	 viewBox="0 0 128 128" style="enable-background:new 0 0 128 128;" xml:space="preserve">
<g id="_x32_">
	<path style="fill:#110F10;" d="M70.307,80.23c-4.35-3.49-6.268,1.843-6.391,2.175c-0.012,0.012-0.012,0.025-0.012,0.025
		s-0.049-0.025-0.135-0.025c-0.086,0-0.135,0.025-0.135,0.025s0-0.012-0.012-0.025c-0.123-0.332-2.04-5.665-6.391-2.175
		c-4.498,3.601-7.14,5.96-11.011,5.96c6.046,3.908,15.288,2.655,17.414-0.787c0.049-0.086,0.098-0.16,0.135-0.234
		c0.037,0.074,0.086,0.147,0.135,0.234c2.126,3.441,11.368,4.695,17.414,0.787C77.448,86.191,74.805,83.831,70.307,80.23z
		 M70.307,80.23c-4.35-3.49-6.268,1.843-6.391,2.175c-0.012,0.012-0.012,0.025-0.012,0.025s-0.049-0.025-0.135-0.025
		c-0.086,0-0.135,0.025-0.135,0.025s0-0.012-0.012-0.025c-0.123-0.332-2.04-5.665-6.391-2.175c-4.498,3.601-7.14,5.96-11.011,5.96
		c6.046,3.908,15.288,2.655,17.414-0.787c0.049-0.086,0.098-0.16,0.135-0.234c0.037,0.074,0.086,0.147,0.135,0.234
		c2.126,3.441,11.368,4.695,17.414,0.787C77.448,86.191,74.805,83.831,70.307,80.23z M70.307,80.23
		c-4.35-3.49-6.268,1.843-6.391,2.175c-0.012,0.012-0.012,0.025-0.012,0.025s-0.049-0.025-0.135-0.025
		c-0.086,0-0.135,0.025-0.135,0.025s0-0.012-0.012-0.025c-0.123-0.332-2.04-5.665-6.391-2.175c-4.498,3.601-7.14,5.96-11.011,5.96
		c6.046,3.908,15.288,2.655,17.414-0.787c0.049-0.086,0.098-0.16,0.135-0.234c0.037,0.074,0.086,0.147,0.135,0.234
		c2.126,3.441,11.368,4.695,17.414,0.787C77.448,86.191,74.805,83.831,70.307,80.23z M105.062,52.345
		c-0.393-2.102-1.241-3.552-2.495-4.314c-0.799-0.479-1.499-0.701-2.114-0.75l1.167-3.331c0,0,3.171-12.56-2.298-23.682
		C93.866,9.147,78.996,3.211,65.477,0.422c-13.506-2.777-42.829,9.021-29.52,10.36c4.928,0.492-9.967,5.272-12.843,10.741
		c-1.659,3.134,1.512,15.682,4.498,25.759c-0.614,0.049-1.327,0.27-2.126,0.75c-1.254,0.762-2.102,2.212-2.495,4.314
		c-1.352,7.03,2.433,20.302,6.354,25.476c0.688,0.922,1.512,1.88,2.372,2.495c0.332,11.896,2.249,28.536,9.967,34.89
		c10.262,8.443,18.815,11.724,21.605,12.634c0.184,0.061,0.344,0.111,0.479,0.16c0.135-0.049,0.295-0.098,0.479-0.16
		c2.79-0.909,11.343-4.191,21.605-12.634c7.656-6.305,9.598-22.699,9.955-34.571c1.069-0.541,2.065-1.72,2.9-2.814
		C102.629,72.648,106.414,59.375,105.062,52.345z M45.642,26.5c10.446,2.777,16.947,5.371,16.947,5.371s8.652-2.593,19.098-5.371
		s10.016,11.896,8.431,17.255c1.389,2.212,2.63,8.775,3.306,13.088h-2.261c-1.303-5.383-6.169-9.402-11.946-9.402
		c-5.788,0-10.655,4.019-11.97,9.402h-7.153c-1.315-5.383-6.182-9.402-11.97-9.402c-5.776,0-10.643,4.019-11.958,9.402h-2.102
		c0.614-4.314,1.757-10.876,3.134-13.088C35.626,38.397,35.184,23.723,45.642,26.5z M89.074,59.756c0,5.444-4.424,9.856-9.856,9.856
		s-9.856-4.412-9.856-9.856c0-5.432,4.424-9.856,9.856-9.856S89.074,54.324,89.074,59.756z M57.981,59.756
		c0,5.444-4.412,9.856-9.856,9.856c-5.432,0-9.856-4.412-9.856-9.856c0-5.432,4.424-9.856,9.856-9.856
		C53.569,49.9,57.981,54.324,57.981,59.756z M96.754,76.335c-0.332,0.442-0.627,0.787-0.885,1.069
		c0.062-5.96-0.246-6.464-0.246-6.464h-1.635c0,0,0.369,2.667-7.312,13.715C83.463,89.282,73.617,97.74,63.77,97.74
		c-9.847,0-19.694-8.458-22.908-13.085c-7.681-11.048-7.312-13.715-7.312-13.715h-1.635c0,0-0.295,0.221-0.258,5.862
		c-0.111-0.147-0.234-0.295-0.356-0.467c-3.552-4.682-7.116-17.169-5.899-23.522c0.258-1.377,0.737-2.298,1.352-2.679
		c0.651-0.393,1.155-0.504,1.487-0.332c0.061,0.025,0.123,0.074,0.172,0.123c1.893,6.194,3.515,10.901,3.515,10.901h1.635
		c0-0.061,0.061-0.627,0.172-1.524h2.089c0,0.16-0.012,0.307-0.012,0.455c0,6.796,5.53,12.314,12.314,12.314
		c6.796,0,12.314-5.518,12.314-12.314v-0.455h6.477c-0.012,0.16-0.012,0.307-0.012,0.455c0,6.796,5.518,12.314,12.314,12.314
		c6.784,0,12.314-5.518,12.314-12.314c0-0.147-0.012-0.295-0.012-0.455h2.274c0.123,0.897,0.197,1.462,0.197,1.524h1.696
		l2.753-7.853l1.02-2.888c0.123-0.123,0.234-0.221,0.356-0.283c0.332-0.172,0.836-0.061,1.487,0.332
		c0.614,0.381,1.094,1.303,1.352,2.679C103.87,59.166,100.306,71.652,96.754,76.335z M38.89,45.912c0,0,6.282-5.793,12.556-4.791
		s5.909,5.306,5.909,5.306S49.089,42.606,38.89,45.912z M69.987,46.427c0,0-0.366-4.304,5.909-5.306
		c6.275-1.002,12.556,4.791,12.556,4.791C78.253,42.606,69.987,46.427,69.987,46.427z"/>
</g>
<g id="Layer_1">
</g>
</svg>
