<svg xmlns="http://www.w3.org/2000/svg" viewBox="0 0 64 64"><g id="_29-spy" data-name="29-spy"><rect x="53.714" y="52.654" width="7.071" height="9.192" transform="translate(-23.714 57.25) rotate(-45)" style="fill:#b24535"/><polygon points="56.5 51.5 51.5 56.5 49 54 50 53 53 50 54 49 56.5 51.5" style="fill:#e66441"/><path d="M53,50l-3,3-3.58-3.58a15.785,15.785,0,0,0,3-3Z" style="fill:#636978"/><path d="M24,53v4a6,6,0,0,1-12,0V53Z" style="fill:#636978"/><path d="M25.01,23.04A16.978,16.978,0,0,0,23.8,47.83v.01A8.816,8.816,0,0,0,23.73,49H12.27C12.27,44.26,9,41.11,9,32.42S12.27,19,18,19A7.662,7.662,0,0,1,25.01,23.04Z" style="fill:#636978"/><path d="M25.01,23.04A7.662,7.662,0,0,0,18,19a9.794,9.794,0,0,0-1.041.055A7.589,7.589,0,0,1,23.01,23.04,16.978,16.978,0,0,0,21.8,47.83v.01A8.816,8.816,0,0,0,21.73,49h2a8.816,8.816,0,0,1,.07-1.16v-.01a16.978,16.978,0,0,1,1.21-24.79Z" style="fill:#555a66"/><path d="M46,14.42a27.953,27.953,0,0,1-.89,7.23,17,17,0,0,0-16.46-.98A28.844,28.844,0,0,1,28,14.42C28,5.74,31.27,1,37,1S46,5.74,46,14.42Z" style="fill:#636978"/><path d="M45.11,19.65a17,17,0,0,0-16.46-.98,28.56,28.56,0,0,1-.624-5.308c-.012.349-.026.7-.026,1.058a28.844,28.844,0,0,0,.65,6.25,17,17,0,0,1,16.46.98A27.953,27.953,0,0,0,46,14.42c0-.293-.013-.569-.021-.853A27.327,27.327,0,0,1,45.11,19.65Z" style="fill:#555a66"/><path d="M26.5,27.13a25.563,25.563,0,0,1,.5,5.29,30.013,30.013,0,0,1-1.92,10.62A12.974,12.974,0,0,1,26.5,27.13Z" style="fill:#008cbe"/><path d="M43,35v4a6,6,0,0,1-12,0V35Z" style="fill:#008cbe"/><path d="M43.86,25.66A16.469,16.469,0,0,0,42.73,31H31.27a19.691,19.691,0,0,0-1.5-6.41,12.967,12.967,0,0,1,14.09,1.07Z" style="fill:#008cbe"/><path d="M43.86,25.66A12.992,12.992,0,1,1,25.08,43.04,30.013,30.013,0,0,0,27,32.42a25.563,25.563,0,0,0-.5-5.29,12.835,12.835,0,0,1,3.27-2.54A19.691,19.691,0,0,1,31.27,31H42.73A16.469,16.469,0,0,1,43.86,25.66ZM43,39V35H31v4a6,6,0,0,0,12,0Z" style="fill:#00c8ff"/><path d="M29.77,26.59A19.691,19.691,0,0,1,31.27,33H42.73a16.469,16.469,0,0,1,1.13-5.34,12.916,12.916,0,0,1,5.085,9.421c.03-.357.055-.716.055-1.081a12.933,12.933,0,0,0-5.14-10.34A16.469,16.469,0,0,0,42.73,31H31.27a19.691,19.691,0,0,0-1.5-6.41,12.835,12.835,0,0,0-3.27,2.54c.116.544.2,1.125.281,1.722A12.775,12.775,0,0,1,29.77,26.59Z" style="fill:#00b7e2"/><path d="M37,47a6,6,0,0,0,6-6V39a6,6,0,0,1-12,0v2A6,6,0,0,0,37,47Z" style="fill:#00b7e2"/><path d="M27,34.42c0-.372-.012-.729-.024-1.086a30.344,30.344,0,0,1-1.9,9.706c.139.217.3.414.455.622A28.658,28.658,0,0,0,27,34.42Z" style="fill:#00b7e2"/><path d="M46.42,49.42A16.981,16.981,0,0,1,23.8,47.84v-.01a16.978,16.978,0,0,1,1.21-24.79,16.628,16.628,0,0,1,3.64-2.37A16.992,16.992,0,0,1,49.42,46.42,15.785,15.785,0,0,1,46.42,49.42ZM49,36A12.994,12.994,0,1,0,36,49,12.933,12.933,0,0,0,49,36Z" style="fill:#dce1eb"/><path d="M23.73,50H12.27a1,1,0,0,1-1-1,16.541,16.541,0,0,0-1.215-5.4A31.422,31.422,0,0,1,8,32.42C8,23.256,11.645,18,18,18a8.666,8.666,0,0,1,7.876,4.54l-1.732,1A6.677,6.677,0,0,0,18,20c-6.961,0-8,7.781-8,12.42a29.309,29.309,0,0,0,1.947,10.53A21.3,21.3,0,0,1,13.225,48h9.55c.01-.1.021-.2.034-.29l.955.125L24.8,47.83a1.085,1.085,0,0,1-.009.14A7.864,7.864,0,0,0,24.73,49,1,1,0,0,1,23.73,50Z"/><path d="M26.026,43.363l-1.892-.646A28.874,28.874,0,0,0,26,32.42a24.562,24.562,0,0,0-.479-5.082l1.958-.416A26.7,26.7,0,0,1,28,32.42,31,31,0,0,1,26.026,43.363Z"/><path d="M18,64a7.009,7.009,0,0,1-7-7V53a1,1,0,0,1,1-1H24a1,1,0,0,1,1,1v4A7.009,7.009,0,0,1,18,64ZM13,54v3a5,5,0,0,0,10,0V54Z"/><path d="M46.078,21.9,44.143,21.4A27.232,27.232,0,0,0,45,14.42C45,9.781,43.961,2,37,2s-8,7.781-8,12.42a27.919,27.919,0,0,0,.627,6.036l-1.953.428A29.912,29.912,0,0,1,27,14.42C27,5.256,30.645,0,37,0S47,5.256,47,14.42A29.236,29.236,0,0,1,46.078,21.9Z"/><path d="M42.73,32H31.27a1,1,0,0,1-1-1,16.507,16.507,0,0,0-1.208-5.386l-.241-.705,1.9-.638.236.7A20.99,20.99,0,0,1,32.227,30h9.546a19.977,19.977,0,0,1,1.139-4.656l1.9.633A15.549,15.549,0,0,0,43.73,31,1,1,0,0,1,42.73,32Z"/><path d="M37,46a7.009,7.009,0,0,1-7-7V35a1,1,0,0,1,1-1H43a1,1,0,0,1,1,1v4A7.009,7.009,0,0,1,37,46ZM32,36v3a5,5,0,0,0,10,0V36Z"/><path d="M36,54A18,18,0,1,1,54,36,18.021,18.021,0,0,1,36,54Zm0-34A16,16,0,1,0,52,36,16.019,16.019,0,0,0,36,20Z"/><path d="M36,50A14,14,0,1,1,50,36,14.015,14.015,0,0,1,36,50Zm0-26A12,12,0,1,0,48,36,12.013,12.013,0,0,0,36,24Z"/><path d="M58,64a1,1,0,0,1-.707-.293l-9-9a1,1,0,0,1,0-1.414l5-5a1,1,0,0,1,1.414,0l9,9a1,1,0,0,1,0,1.414l-5,5A1,1,0,0,1,58,64ZM50.414,54,58,61.586,61.586,58,54,50.414Z"/><rect x="49.757" y="53" width="8.485" height="2" transform="translate(-22.368 54) rotate(-45)"/><rect x="50" y="45.172" width="2" height="5.657" transform="translate(-19.004 50.121) rotate(-45)"/><rect x="47" y="48.172" width="2" height="5.657" transform="translate(-22.004 48.879) rotate(-45)"/><rect x="56" y="35" width="7" height="2"/><rect x="55.172" y="30" width="5.657" height="2" transform="translate(-4.933 50.092) rotate(-45)"/><rect x="57" y="38.172" width="2" height="5.657" transform="translate(-12.004 53.021) rotate(-45)"/></g></svg>